<svg width="238" height="238" viewBox="0 0 238 238" fill="none" xmlns="http://www.w3.org/2000/svg">
<path d="M118.71 57.22C117.6 56.04 116.73 54.86 115.94 53.68C115.13 52.5 114.46 51.32 113.82 50.14C112.59 47.78 111.6 45.42 110.86 43.06C109.36 38.34 108.72 33.62 108.7 28.91C108.7 24.19 109.33 19.47 110.82 14.75C111.55 12.39 112.54 10.03 113.78 7.67001C114.42 6.49001 115.1 5.31 115.91 4.13C116.71 2.95001 117.58 1.77 118.7 0.589996C119.82 1.77 120.69 2.95001 121.49 4.13C122.3 5.31 122.97 6.49001 123.62 7.67001C124.86 10.03 125.85 12.39 126.58 14.75C128.07 19.47 128.71 24.19 128.71 28.9C128.69 33.62 128.05 38.34 126.56 43.06C125.83 45.42 124.84 47.78 123.61 50.14C122.97 51.32 122.3 52.5 121.49 53.68C120.7 54.86 119.83 56.04 118.72 57.22H118.71Z" fill="#FBAF00"/>
<path d="M162.37 75.08C162.42 73.46 162.64 72.01 162.91 70.62C163.17 69.22 163.53 67.91 163.91 66.62C164.71 64.08 165.67 61.71 166.82 59.53C169.1 55.14 171.98 51.35 175.3 48C178.63 44.66 182.42 41.78 186.81 39.49C189 38.34 191.36 37.37 193.91 36.58C195.2 36.2 196.51 35.84 197.92 35.58C199.32 35.31 200.77 35.09 202.39 35.05C202.35 36.67 202.13 38.13 201.86 39.52C201.6 40.93 201.24 42.24 200.86 43.53C200.07 46.07 199.1 48.44 197.95 50.63C195.67 55.02 192.78 58.81 189.45 62.14C186.1 65.46 182.31 68.35 177.92 70.63C175.73 71.78 173.37 72.75 170.83 73.55C169.54 73.93 168.23 74.29 166.83 74.56C165.44 74.83 163.99 75.05 162.37 75.1V75.08Z" fill="#FBAF00"/>
<path d="M180.62 118.58C181.8 117.47 182.98 116.6 184.16 115.81C185.34 115 186.52 114.33 187.7 113.69C190.06 112.46 192.42 111.47 194.78 110.73C199.5 109.23 204.22 108.59 208.93 108.57C213.65 108.57 218.37 109.2 223.09 110.69C225.45 111.42 227.81 112.41 230.17 113.65C231.35 114.29 232.53 114.97 233.71 115.78C234.89 116.58 236.07 117.45 237.25 118.57C236.07 119.69 234.89 120.56 233.71 121.36C232.53 122.17 231.35 122.84 230.17 123.49C227.81 124.73 225.45 125.72 223.09 126.45C218.37 127.94 213.65 128.58 208.94 128.58C204.22 128.56 199.5 127.92 194.78 126.43C192.42 125.7 190.06 124.71 187.7 123.48C186.52 122.84 185.34 122.17 184.16 121.36C182.98 120.57 181.8 119.7 180.62 118.59V118.58Z" fill="#FBAF00"/>
<path d="M162.76 162.23C164.38 162.28 165.83 162.5 167.22 162.77C168.62 163.03 169.93 163.39 171.22 163.77C173.76 164.57 176.13 165.53 178.31 166.68C182.7 168.96 186.49 171.84 189.84 175.16C193.18 178.49 196.06 182.28 198.35 186.67C199.5 188.86 200.47 191.22 201.26 193.77C201.64 195.06 202 196.37 202.26 197.78C202.53 199.18 202.75 200.63 202.79 202.25C201.17 202.21 199.71 201.99 198.32 201.72C196.91 201.46 195.6 201.1 194.31 200.72C191.77 199.93 189.4 198.96 187.21 197.81C182.82 195.53 179.03 192.64 175.7 189.31C172.38 185.96 169.49 182.17 167.21 177.78C166.06 175.59 165.09 173.23 164.29 170.69C163.91 169.4 163.55 168.09 163.28 166.69C163.01 165.3 162.79 163.85 162.74 162.23H162.76Z" fill="#FBAF00"/>
<path d="M119.26 180.48C120.37 181.66 121.24 182.84 122.03 184.02C122.84 185.2 123.51 186.38 124.15 187.56C125.38 189.92 126.37 192.28 127.11 194.64C128.61 199.36 129.25 204.08 129.27 208.79C129.27 213.51 128.64 218.23 127.15 222.95C126.42 225.31 125.43 227.67 124.19 230.03C123.55 231.21 122.87 232.39 122.06 233.57C121.26 234.75 120.39 235.93 119.27 237.11C118.15 235.93 117.28 234.75 116.48 233.57C115.67 232.39 115 231.21 114.35 230.03C113.11 227.67 112.12 225.31 111.39 222.95C109.9 218.23 109.26 213.51 109.26 208.8C109.28 204.08 109.92 199.36 111.41 194.64C112.14 192.28 113.13 189.92 114.36 187.56C115 186.38 115.67 185.2 116.48 184.02C117.27 182.84 118.14 181.66 119.25 180.48H119.26Z" fill="#FBAF00"/>
<path d="M75.6 162.63C75.55 164.25 75.3301 165.7 75.0601 167.09C74.8001 168.49 74.4401 169.8 74.0601 171.09C73.2601 173.63 72.3001 176 71.1501 178.18C68.8701 182.57 65.99 186.36 62.67 189.71C59.34 193.05 55.55 195.93 51.16 198.22C48.97 199.37 46.6101 200.34 44.0601 201.13C42.7701 201.51 41.46 201.87 40.05 202.13C38.65 202.4 37.2001 202.62 35.5801 202.66C35.6201 201.04 35.84 199.58 36.11 198.19C36.37 196.78 36.73 195.47 37.11 194.18C37.9 191.64 38.8701 189.27 40.0201 187.08C42.3001 182.69 45.1901 178.9 48.5201 175.57C51.8701 172.25 55.66 169.36 60.05 167.08C62.24 165.93 64.6001 164.96 67.1401 164.16C68.4301 163.78 69.7401 163.42 71.1401 163.15C72.5301 162.88 73.98 162.66 75.6 162.61V162.63Z" fill="#FBAF00"/>
<path d="M57.36 119.13C56.18 120.24 55 121.11 53.82 121.9C52.64 122.71 51.46 123.38 50.28 124.02C47.92 125.25 45.56 126.24 43.2 126.98C38.48 128.48 33.76 129.12 29.05 129.14C24.33 129.14 19.61 128.51 14.89 127.02C12.53 126.29 10.17 125.3 7.81 124.06C6.63 123.42 5.45002 122.74 4.27002 121.93C3.09002 121.13 1.90998 120.26 0.72998 119.14C1.90998 118.02 3.09002 117.15 4.27002 116.35C5.45002 115.54 6.63 114.87 7.81 114.22C10.17 112.98 12.53 111.99 14.89 111.26C19.61 109.77 24.33 109.13 29.04 109.13C33.76 109.15 38.48 109.79 43.2 111.28C45.56 112.01 47.92 113 50.28 114.23C51.46 114.87 52.64 115.54 53.82 116.35C55 117.14 56.18 118.01 57.36 119.12V119.13Z" fill="#FBAF00"/>
<path d="M75.2102 75.47C73.5902 75.42 72.1402 75.2 70.7502 74.93C69.3502 74.67 68.0402 74.31 66.7502 73.93C64.2102 73.13 61.8402 72.17 59.6602 71.02C55.2702 68.74 51.4802 65.86 48.1302 62.54C44.7902 59.21 41.9102 55.42 39.6202 51.03C38.4702 48.84 37.5002 46.48 36.7102 43.93C36.3302 42.64 35.9702 41.33 35.7102 39.92C35.4402 38.52 35.2202 37.07 35.1802 35.45C36.8002 35.49 38.2602 35.71 39.6502 35.98C41.0602 36.24 42.3702 36.6 43.6602 36.98C46.2002 37.77 48.5702 38.74 50.7602 39.89C55.1502 42.17 58.9402 45.06 62.2702 48.39C65.5902 51.74 68.4802 55.53 70.7602 59.92C71.9102 62.11 72.8802 64.47 73.6802 67.01C74.0602 68.3 74.4202 69.61 74.6902 71.01C74.9602 72.4 75.1802 73.85 75.2302 75.47H75.2102Z" fill="#FBAF00"/>
<path d="M70.5598 115.56C70.9198 111.34 72.3898 107.02 75.1698 101.96C86.0798 82.12 111.01 74.87 130.85 85.78C135.66 88.42 139.73 91.89 142.99 95.92C143.87 97.01 144.69 98.13 145.44 99.3C148.51 104.14 150.39 109.7 150.94 115.51C150.99 116.41 151.1 117.3 151.09 118.21L151.12 119.56L151.05 120.85C151.05 122.58 150.73 124.27 150.47 125.95C149.8 129.29 148.52 132.48 146.82 135.4C145.11 138.31 143 141 140.45 143.19C137.91 145.39 135.01 147.15 131.93 148.39C128.86 149.66 125.58 150.46 122.22 150.56C121.36 150.68 120.62 150.59 119.83 150.58C119.05 150.62 118.29 150.44 117.52 150.36C115.98 150.14 114.48 149.72 113.03 149.19C110.12 148.14 107.39 146.45 105.14 144.22C102.88 142.01 101.09 139.31 99.8398 136.38L99.3698 135.28C99.2398 134.9 99.1498 134.51 99.0198 134.13L98.6698 132.98L98.4398 131.79C98.3598 131.39 98.2698 131 98.1998 130.6L98.0898 129.39C98.0598 128.99 97.9898 128.57 97.9798 128.19V127.07C97.9798 126.89 97.9798 126.7 97.9798 126.52L98.0498 125.96L98.1598 124.85L98.3798 123.76L98.4798 123.21C98.5198 123.03 98.5898 122.86 98.6398 122.68L98.9498 121.6L99.3698 120.56L99.5698 120.03C99.6498 119.87 99.7498 119.71 99.8298 119.53L100.34 118.53C101.89 115.97 104.03 113.68 106.69 112.19C107.97 111.36 109.42 110.86 110.87 110.39L111.99 110.14C112.18 110.1 112.37 110.04 112.55 110.01L113.13 109.95L114.29 109.8L115.35 109.78C116.76 109.8 118.16 110.04 119.53 110.47C120.88 110.94 122.18 111.65 123.35 112.55C125.74 114.33 127.46 117 128.35 119.95L128.64 121.09C128.71 121.47 128.74 121.86 128.8 122.26C128.89 122.66 128.88 123.01 128.9 123.37C128.94 123.73 128.9 124.09 128.89 124.45C128.79 125.89 128.4 127.32 127.75 128.66C127.09 129.99 126.15 131.22 124.98 132.21C123.82 133.2 122.43 133.94 120.93 134.4C120.18 134.62 119.37 134.77 118.6 134.86C118.24 134.88 117.87 134.93 117.5 134.88C117.12 134.88 116.75 134.82 116.38 134.78C114.89 134.56 113.48 133.85 112.21 132.89C110.99 131.88 109.92 130.55 109.31 128.98C109.16 128.59 109 128.19 108.91 127.78C108.78 127.38 108.73 126.95 108.65 126.52C108.53 125.69 108.5 124.88 108.65 124.05C109.11 120.73 112.01 117.64 115.79 117.16C117.59 116.87 119.57 117.36 121.16 118.58C122.75 119.8 123.88 121.74 124.17 123.93C124.26 122.83 124.15 121.7 123.81 120.6C123.45 119.51 122.87 118.47 122.09 117.58C120.57 115.78 118.2 114.59 115.69 114.48C113.26 114.35 110.7 115.03 108.59 116.51C106.45 117.96 104.8 120.18 103.91 122.74C103.46 124.02 103.26 125.41 103.23 126.76C103.23 127.42 103.23 128.08 103.31 128.75C103.36 129.42 103.5 130.07 103.64 130.74C104.24 133.37 105.59 135.84 107.42 137.9C109.29 139.92 111.69 141.53 114.39 142.38C115.06 142.59 115.74 142.79 116.44 142.9C117.14 143.06 117.85 143.1 118.56 143.16C119.95 143.23 121.29 143.16 122.65 142.96C125.36 142.55 128.01 141.53 130.37 140C132.73 138.47 134.78 136.46 136.37 134.07C137.97 131.7 139.08 128.94 139.6 126.06C139.73 125.33 139.86 124.62 139.89 123.88C139.94 123.15 140.01 122.4 139.96 121.73C139.94 121.04 139.94 120.33 139.88 119.63L139.6 117.54C138.65 111.98 135.85 106.67 131.63 102.8C129.54 100.84 127.13 99.21 124.5 98C121.87 96.81 119.02 96.1 116.13 95.83C115.4 95.78 114.67 95.74 113.95 95.72L111.89 95.8L110.85 95.84C110.51 95.88 110.17 95.93 109.83 95.97L107.77 96.27C105.06 96.86 102.35 97.65 99.8598 98.95C98.5698 99.51 97.4098 100.31 96.2098 101.04C95.6298 101.44 95.0798 101.87 94.5198 102.29L93.6798 102.93C93.4098 103.16 93.1598 103.4 92.8898 103.64L91.3298 105.08L89.9098 106.65L89.2098 107.45L88.5698 108.3L87.3098 110.01C84.2298 114.78 82.1698 120.39 81.8898 126.17L81.7998 128.32C81.7898 129.03 81.8498 129.69 81.8698 130.39L81.9998 132.44C82.0698 133.13 82.1898 133.8 82.2898 134.49L82.6098 136.53L83.1098 138.54C83.2898 139.21 83.4498 139.88 83.6498 140.55L84.3598 142.5C86.9798 149.6 91.7198 155.88 97.7398 160.42C100.53 162.52 103.6 164.26 106.87 165.53C109.37 166.5 111.96 167.23 114.61 167.66C133.17 169.08 151.73 159.79 161.29 142.4C174.32 118.69 165.66 88.89 141.95 75.86C118.24 62.83 88.4398 71.49 75.4098 95.2C70.3998 104.32 68.8798 111.99 70.1098 120.03L70.5398 115.51L70.5598 115.56Z" fill="#FBAF00"/>
</svg>
