<svg width="238" height="238" viewBox="0 0 238 238" fill="none" xmlns="http://www.w3.org/2000/svg">
    <path d="M118.71 57.2201C117.6 56.0401 116.73 54.8601 115.94 53.6801C115.13 52.5001 114.46 51.3201 113.82 50.1401C112.59 47.7801 111.6 45.4201 110.86 43.0601C109.36 38.3401 108.72 33.6201 108.7 28.9101C108.7 24.1901 109.33 19.4701 110.82 14.7501C111.55 12.3901 112.54 10.0301 113.78 7.6701C114.42 6.49011 115.1 5.3101 115.91 4.1301C116.71 2.9501 117.58 1.77009 118.7 0.590088C119.82 1.77009 120.69 2.9501 121.49 4.1301C122.3 5.3101 122.97 6.49011 123.62 7.6701C124.86 10.0301 125.85 12.3901 126.58 14.7501C128.07 19.4701 128.71 24.1901 128.71 28.9001C128.69 33.6201 128.05 38.3401 126.56 43.0601C125.83 45.4201 124.84 47.7801 123.61 50.1401C122.97 51.3201 122.3 52.5001 121.49 53.6801C120.7 54.8601 119.83 56.0401 118.72 57.2201H118.71Z" fill="#FBAF00"/>
    <path d="M162.37 75.08C162.42 73.46 162.64 72.0101 162.91 70.6201C163.17 69.2201 163.53 67.9101 163.91 66.6201C164.71 64.0801 165.67 61.7101 166.82 59.5301C169.1 55.1401 171.98 51.3501 175.3 48.0001C178.63 44.6601 182.42 41.7801 186.81 39.4901C189 38.3401 191.36 37.37 193.91 36.58C195.2 36.2 196.51 35.84 197.92 35.58C199.32 35.31 200.77 35.09 202.39 35.05C202.35 36.67 202.13 38.1301 201.86 39.5201C201.6 40.93 201.24 42.2401 200.86 43.5301C200.07 46.0701 199.1 48.4401 197.95 50.6301C195.67 55.0201 192.78 58.8101 189.45 62.1401C186.1 65.4601 182.31 68.3501 177.92 70.6301C175.73 71.7801 173.37 72.75 170.83 73.55C169.54 73.93 168.23 74.2901 166.83 74.5601C165.44 74.8301 163.99 75.0501 162.37 75.1001V75.08Z" fill="#FBAF00"/>
    <path d="M180.62 118.58C181.8 117.47 182.98 116.6 184.16 115.81C185.34 115 186.52 114.33 187.7 113.69C190.06 112.46 192.42 111.47 194.78 110.73C199.5 109.23 204.22 108.59 208.93 108.57C213.65 108.57 218.37 109.2 223.09 110.69C225.45 111.42 227.81 112.41 230.17 113.65C231.35 114.29 232.53 114.97 233.71 115.78C234.89 116.58 236.07 117.45 237.25 118.57C236.07 119.69 234.89 120.56 233.71 121.36C232.53 122.17 231.35 122.84 230.17 123.49C227.81 124.73 225.45 125.72 223.09 126.45C218.37 127.94 213.65 128.58 208.94 128.58C204.22 128.56 199.5 127.92 194.78 126.43C192.42 125.7 190.06 124.71 187.7 123.48C186.52 122.84 185.34 122.17 184.16 121.36C182.98 120.57 181.8 119.7 180.62 118.59V118.58Z" fill="#FBAF00"/>
    <path d="M162.76 162.23C164.38 162.28 165.83 162.5 167.22 162.77C168.62 163.03 169.93 163.39 171.22 163.77C173.76 164.57 176.13 165.53 178.31 166.68C182.7 168.96 186.49 171.84 189.84 175.16C193.18 178.49 196.06 182.28 198.35 186.67C199.5 188.86 200.47 191.22 201.26 193.77C201.64 195.06 202 196.37 202.26 197.78C202.53 199.18 202.75 200.63 202.79 202.25C201.17 202.21 199.71 201.99 198.32 201.72C196.91 201.46 195.6 201.1 194.31 200.72C191.77 199.93 189.4 198.96 187.21 197.81C182.82 195.53 179.03 192.64 175.7 189.31C172.38 185.96 169.49 182.17 167.21 177.78C166.06 175.59 165.09 173.23 164.29 170.69C163.91 169.4 163.55 168.09 163.28 166.69C163.01 165.3 162.79 163.85 162.74 162.23H162.76Z" fill="#FBAF00"/>
    <path d="M119.261 180.48C120.371 181.66 121.241 182.84 122.031 184.02C122.841 185.2 123.511 186.38 124.151 187.56C125.381 189.92 126.371 192.28 127.111 194.64C128.611 199.36 129.251 204.08 129.271 208.79C129.271 213.51 128.641 218.23 127.151 222.95C126.421 225.31 125.431 227.67 124.191 230.03C123.551 231.21 122.871 232.39 122.061 233.57C121.261 234.75 120.391 235.93 119.271 237.11C118.151 235.93 117.281 234.75 116.481 233.57C115.671 232.39 115.001 231.21 114.351 230.03C113.111 227.67 112.121 225.31 111.391 222.95C109.901 218.23 109.261 213.51 109.261 208.8C109.281 204.08 109.921 199.36 111.411 194.64C112.141 192.28 113.131 189.92 114.361 187.56C115.001 186.38 115.671 185.2 116.481 184.02C117.271 182.84 118.141 181.66 119.251 180.48H119.261Z" fill="#FBAF00"/>
    <path d="M75.6 162.63C75.55 164.25 75.3301 165.7 75.0601 167.09C74.8001 168.49 74.4401 169.8 74.0601 171.09C73.2601 173.63 72.3001 176 71.1501 178.18C68.8701 182.57 65.99 186.36 62.67 189.71C59.34 193.05 55.55 195.93 51.16 198.22C48.97 199.37 46.6101 200.34 44.0601 201.13C42.7701 201.51 41.46 201.87 40.05 202.13C38.65 202.4 37.2001 202.62 35.5801 202.66C35.6201 201.04 35.84 199.58 36.11 198.19C36.37 196.78 36.73 195.47 37.11 194.18C37.9 191.64 38.8701 189.27 40.0201 187.08C42.3001 182.69 45.1901 178.9 48.5201 175.57C51.8701 172.25 55.66 169.36 60.05 167.08C62.24 165.93 64.6001 164.96 67.1401 164.16C68.4301 163.78 69.7401 163.42 71.1401 163.15C72.5301 162.88 73.98 162.66 75.6 162.61V162.63Z" fill="#FBAF00"/>
    <path d="M57.3605 119.13C56.1805 120.24 55.0005 121.11 53.8205 121.9C52.6405 122.71 51.4605 123.38 50.2805 124.02C47.9205 125.25 45.5605 126.24 43.2005 126.98C38.4805 128.48 33.7605 129.12 29.0505 129.14C24.3305 129.14 19.6105 128.51 14.8905 127.02C12.5305 126.29 10.1705 125.3 7.81049 124.06C6.63049 123.42 5.45051 122.74 4.27051 121.93C3.09051 121.13 1.91047 120.26 0.730469 119.14C1.91047 118.02 3.09051 117.15 4.27051 116.35C5.45051 115.54 6.63049 114.87 7.81049 114.22C10.1705 112.98 12.5305 111.99 14.8905 111.26C19.6105 109.77 24.3305 109.13 29.0405 109.13C33.7605 109.15 38.4805 109.79 43.2005 111.28C45.5605 112.01 47.9205 113 50.2805 114.23C51.4605 114.87 52.6405 115.54 53.8205 116.35C55.0005 117.14 56.1805 118.01 57.3605 119.12V119.13Z" fill="#FBAF00"/>
    <path d="M75.2107 75.4702C73.5907 75.4202 72.1407 75.2002 70.7507 74.9302C69.3507 74.6702 68.0407 74.3102 66.7507 73.9302C64.2107 73.1302 61.8406 72.1702 59.6606 71.0202C55.2706 68.7402 51.4807 65.8602 48.1307 62.5402C44.7907 59.2102 41.9107 55.4202 39.6207 51.0302C38.4707 48.8402 37.5007 46.4802 36.7107 43.9302C36.3307 42.6402 35.9707 41.3302 35.7107 39.9202C35.4407 38.5202 35.2207 37.0702 35.1807 35.4502C36.8007 35.4902 38.2607 35.7102 39.6507 35.9802C41.0607 36.2402 42.3706 36.6002 43.6606 36.9802C46.2006 37.7702 48.5707 38.7402 50.7607 39.8902C55.1507 42.1702 58.9407 45.0602 62.2707 48.3902C65.5907 51.7402 68.4807 55.5302 70.7607 59.9202C71.9107 62.1102 72.8807 64.4702 73.6807 67.0102C74.0607 68.3002 74.4207 69.6102 74.6907 71.0102C74.9607 72.4002 75.1807 73.8502 75.2307 75.4702H75.2107Z" fill="#FBAF00"/>
    <path d="M70.5608 115.56C70.9208 111.34 72.3907 107.02 75.1707 101.96C86.0807 82.12 111.011 74.87 130.851 85.78C135.661 88.42 139.731 91.89 142.991 95.92C143.871 97.01 144.691 98.13 145.441 99.3C148.511 104.14 150.391 109.7 150.941 115.51C150.991 116.41 151.101 117.3 151.091 118.21L151.121 119.56L151.051 120.85C151.051 122.58 150.731 124.27 150.471 125.95C149.801 129.29 148.521 132.48 146.821 135.4C145.111 138.31 143.001 141 140.451 143.19C137.911 145.39 135.011 147.15 131.931 148.39C128.861 149.66 125.581 150.46 122.221 150.56C121.361 150.68 120.621 150.59 119.831 150.58C119.051 150.62 118.291 150.44 117.521 150.36C115.981 150.14 114.481 149.72 113.031 149.19C110.121 148.14 107.391 146.45 105.141 144.22C102.881 142.01 101.091 139.31 99.8408 136.38L99.3708 135.28C99.2408 134.9 99.1508 134.51 99.0208 134.13L98.6707 132.98L98.4408 131.79C98.3608 131.39 98.2708 131 98.2008 130.6L98.0908 129.39C98.0608 128.99 97.9907 128.57 97.9807 128.19V127.07C97.9807 126.89 97.9807 126.7 97.9807 126.52L98.0507 125.96L98.1607 124.85L98.3808 123.76L98.4807 123.21C98.5207 123.03 98.5908 122.86 98.6408 122.68L98.9508 121.6L99.3708 120.56L99.5708 120.03C99.6508 119.87 99.7508 119.71 99.8308 119.53L100.341 118.53C101.891 115.97 104.031 113.68 106.691 112.19C107.971 111.36 109.421 110.86 110.871 110.39L111.991 110.14C112.181 110.1 112.371 110.04 112.551 110.01L113.131 109.95L114.291 109.8L115.351 109.78C116.761 109.8 118.161 110.04 119.531 110.47C120.881 110.94 122.181 111.65 123.351 112.55C125.741 114.33 127.461 117 128.351 119.95L128.641 121.09C128.711 121.47 128.741 121.86 128.801 122.26C128.891 122.66 128.881 123.01 128.901 123.37C128.941 123.73 128.901 124.09 128.891 124.45C128.791 125.89 128.401 127.32 127.751 128.66C127.091 129.99 126.151 131.22 124.981 132.21C123.821 133.2 122.431 133.94 120.931 134.4C120.181 134.62 119.371 134.77 118.601 134.86C118.241 134.88 117.871 134.93 117.501 134.88C117.121 134.88 116.751 134.82 116.381 134.78C114.891 134.56 113.481 133.85 112.211 132.89C110.991 131.88 109.921 130.55 109.311 128.98C109.161 128.59 109.001 128.19 108.911 127.78C108.781 127.38 108.731 126.95 108.651 126.52C108.531 125.69 108.501 124.88 108.651 124.05C109.111 120.73 112.011 117.64 115.791 117.16C117.591 116.87 119.571 117.36 121.161 118.58C122.751 119.8 123.881 121.74 124.171 123.93C124.261 122.83 124.151 121.7 123.811 120.6C123.451 119.51 122.871 118.47 122.091 117.58C120.571 115.78 118.201 114.59 115.691 114.48C113.261 114.35 110.701 115.03 108.591 116.51C106.451 117.96 104.801 120.18 103.911 122.74C103.461 124.02 103.261 125.41 103.231 126.76C103.231 127.42 103.231 128.08 103.311 128.75C103.361 129.42 103.501 130.07 103.641 130.74C104.241 133.37 105.591 135.84 107.421 137.9C109.291 139.92 111.691 141.53 114.391 142.38C115.061 142.59 115.741 142.79 116.441 142.9C117.141 143.06 117.851 143.1 118.561 143.16C119.951 143.23 121.291 143.16 122.651 142.96C125.361 142.55 128.011 141.53 130.371 140C132.731 138.47 134.781 136.46 136.371 134.07C137.971 131.7 139.081 128.94 139.601 126.06C139.731 125.33 139.861 124.62 139.891 123.88C139.941 123.15 140.011 122.4 139.961 121.73C139.941 121.04 139.941 120.33 139.881 119.63L139.601 117.54C138.651 111.98 135.851 106.67 131.631 102.8C129.541 100.84 127.131 99.21 124.501 98C121.871 96.81 119.021 96.1 116.131 95.83C115.401 95.78 114.671 95.74 113.951 95.72L111.891 95.8L110.851 95.84C110.511 95.88 110.171 95.93 109.831 95.97L107.771 96.27C105.061 96.86 102.351 97.65 99.8607 98.95C98.5707 99.51 97.4108 100.31 96.2108 101.04C95.6308 101.44 95.0808 101.87 94.5208 102.29L93.6807 102.93C93.4107 103.16 93.1608 103.4 92.8908 103.64L91.3308 105.08L89.9107 106.65L89.2108 107.45L88.5708 108.3L87.3108 110.01C84.2308 114.78 82.1708 120.39 81.8908 126.17L81.8007 128.32C81.7907 129.03 81.8507 129.69 81.8708 130.39L82.0008 132.44C82.0708 133.13 82.1907 133.8 82.2907 134.49L82.6107 136.53L83.1107 138.54C83.2907 139.21 83.4508 139.88 83.6508 140.55L84.3607 142.5C86.9807 149.6 91.7207 155.88 97.7407 160.42C100.531 162.52 103.601 164.26 106.871 165.53C109.371 166.5 111.961 167.23 114.611 167.66C133.171 169.08 151.731 159.79 161.291 142.4C174.321 118.69 165.661 88.89 141.951 75.86C118.241 62.83 88.4407 71.49 75.4107 95.2C70.4007 104.32 68.8807 111.99 70.1107 120.03L70.5407 115.51L70.5608 115.56Z" fill="#FBAF00"/>
</svg>